<?xml version="1.0" standalone="no"?>
<!DOCTYPE svg PUBLIC "-//W3C//DTD SVG 20010904//EN"
 "http://www.w3.org/TR/2001/REC-SVG-20010904/DTD/svg10.dtd">
<svg version="1.0" xmlns="http://www.w3.org/2000/svg"
 width="854.000000pt" height="854.000000pt" viewBox="0 0 854.000000 854.000000"
 preserveAspectRatio="xMidYMid meet">
<metadata>
Created by potrace 1.14, written by Peter Selinger 2001-2017
</metadata>
<g transform="translate(0.000000,854.000000) scale(0.100000,-0.100000)"
fill="#000000" stroke="none">
<path d="M315 7138 c-8 -5 -15 -6 -15 -3 0 3 -9 1 -20 -5 -11 -6 -18 -15 -15
-20 3 -4 0 -10 -7 -12 -14 -5 -18 -91 -7 -158 4 -25 10 -79 14 -120 3 -41 8
-86 10 -100 2 -14 6 -52 10 -85 3 -33 8 -73 10 -90 2 -16 6 -61 10 -100 4 -38
8 -81 10 -95 2 -14 7 -54 10 -90 4 -36 8 -78 10 -95 2 -16 6 -61 10 -100 4
-38 8 -80 10 -93 2 -12 7 -57 10 -100 4 -42 9 -79 10 -82 2 -3 6 -44 10 -90 3
-47 8 -96 10 -110 11 -81 15 -111 20 -165 12 -134 23 -241 30 -285 2 -14 7
-59 10 -100 3 -41 8 -82 10 -90 2 -8 7 -46 10 -85 3 -38 7 -86 10 -105 4 -33
11 -102 20 -180 2 -19 7 -62 10 -95 3 -33 7 -71 10 -85 2 -14 7 -56 10 -95 6
-69 9 -104 20 -200 11 -99 27 -243 41 -380 3 -27 7 -66 10 -85 2 -20 6 -60 9
-90 3 -30 7 -71 10 -90 2 -19 7 -64 10 -100 5 -61 8 -82 20 -185 3 -22 8 -71
11 -110 3 -38 8 -78 10 -88 3 -16 9 -72 19 -177 1 -14 5 -47 8 -75 4 -27 9
-77 12 -110 3 -33 8 -76 10 -95 2 -19 7 -62 10 -95 3 -33 10 -98 16 -145 5
-47 12 -107 14 -135 3 -27 10 -88 15 -135 5 -47 12 -110 15 -140 2 -30 7 -73
10 -95 7 -58 14 -120 21 -205 11 -126 32 -147 154 -148 36 0 216 -3 400 -6
184 -4 457 -8 605 -11 149 -2 414 -7 590 -10 176 -3 451 -7 610 -10 160 -3
416 -7 570 -10 154 -3 413 -7 575 -10 489 -7 950 -15 1230 -20 146 -3 405 -7
575 -10 171 -3 436 -7 590 -10 290 -5 319 -2 343 35 9 15 95 372 116 480 2 14
20 97 40 185 20 88 38 169 40 180 3 11 32 144 66 295 34 151 63 285 66 296 2
12 26 120 53 240 28 121 52 230 54 244 3 14 39 177 81 363 42 186 78 348 80
360 2 12 25 117 51 232 26 116 51 230 56 255 5 25 25 113 43 195 19 83 49 213
66 290 17 77 33 149 36 160 3 11 9 40 14 65 5 25 21 97 35 160 24 105 90 401
135 610 10 47 26 117 35 155 22 93 21 88 40 180 9 44 28 127 41 185 13 58 38
168 54 245 17 77 32 148 35 158 4 20 -14 81 -22 73 -3 -3 -12 1 -20 9 -8 8
-31 15 -51 16 -54 1 -191 4 -1207 24 -99 2 -317 6 -485 10 -168 3 -411 8 -540
10 -129 2 -352 7 -495 10 -143 3 -381 8 -530 10 -381 7 -719 14 -1015 20 -319
6 -721 14 -1045 20 -137 3 -358 7 -490 10 -455 9 -831 16 -1040 20 -346 6
-844 16 -942 19 -51 1 -99 -2 -108 -6z m7239 -397 c26 -27 27 -33 23 -92 -3
-35 -13 -93 -22 -129 -10 -36 -17 -82 -16 -104 0 -21 -6 -63 -15 -93 -9 -30
-17 -69 -19 -86 -2 -18 -9 -61 -15 -97 -6 -36 -13 -83 -16 -105 -3 -21 -12
-66 -19 -100 -8 -33 -14 -73 -13 -90 0 -16 -7 -59 -16 -94 -9 -35 -19 -91 -22
-125 -3 -34 -10 -77 -15 -96 -4 -20 -11 -51 -13 -70 -3 -19 -9 -55 -15 -80 -5
-25 -12 -71 -15 -103 -4 -31 -13 -83 -22 -115 -8 -31 -15 -75 -15 -97 0 -22
-5 -58 -11 -80 -5 -22 -14 -67 -19 -100 -6 -33 -14 -87 -20 -120 -6 -33 -12
-71 -13 -85 -1 -14 -8 -47 -14 -75 -6 -27 -13 -72 -16 -100 -2 -27 -12 -79
-21 -115 -10 -36 -17 -83 -16 -105 0 -22 -6 -62 -13 -90 -8 -27 -17 -66 -20
-85 -2 -19 -9 -69 -16 -110 -7 -41 -12 -82 -12 -90 0 -8 -9 -51 -20 -94 -11
-44 -17 -88 -15 -98 3 -10 -3 -50 -14 -90 -10 -40 -21 -102 -25 -138 -3 -36
-11 -86 -19 -112 -7 -25 -11 -49 -8 -51 3 -3 -2 -29 -10 -59 -9 -29 -18 -80
-21 -113 -2 -33 -11 -89 -20 -125 -9 -36 -16 -83 -16 -105 0 -22 -5 -56 -10
-75 -6 -19 -17 -80 -25 -135 -8 -55 -19 -114 -24 -132 -5 -17 -7 -34 -4 -37 3
-2 -2 -28 -11 -58 -8 -29 -16 -73 -17 -98 -1 -25 -10 -79 -21 -120 -11 -41
-20 -93 -20 -114 1 -22 -6 -69 -14 -105 -9 -37 -17 -82 -19 -101 -5 -47 -22
-89 -37 -95 -20 -7 -989 -55 -998 -50 -5 3 -93 1 -197 -5 -187 -9 -474 -19
-778 -25 -88 -2 -209 -6 -270 -10 -60 -4 -186 -8 -280 -10 -93 -2 -314 -9
-490 -15 -176 -6 -405 -13 -510 -15 -104 -3 -261 -9 -347 -14 -86 -5 -165 -7
-175 -5 -11 3 -197 -4 -414 -16 -217 -11 -489 -23 -606 -25 -255 -6 -251 -8
-271 107 -7 40 -19 111 -27 158 -8 47 -20 129 -25 183 -6 54 -14 106 -19 115
-5 9 -12 51 -16 92 -4 41 -11 80 -15 85 -5 6 -13 55 -19 110 -15 153 -31 258
-40 276 -5 8 -12 47 -16 85 -4 38 -11 85 -17 104 -6 19 -15 73 -19 120 -4 47
-15 123 -23 170 -9 47 -22 126 -30 175 -9 50 -18 99 -22 110 -3 11 -10 58 -14
105 -11 103 -34 250 -48 305 -6 22 -14 71 -18 108 -4 37 -11 70 -15 73 -5 3
-9 36 -9 73 0 37 -4 81 -10 97 -5 16 -17 72 -25 124 -9 52 -22 136 -31 185 -8
50 -19 130 -24 179 -5 49 -12 96 -16 105 -3 9 -12 54 -20 101 -8 47 -21 123
-29 170 -8 47 -20 132 -26 190 -6 58 -14 109 -19 115 -4 5 -11 39 -15 75 -3
36 -13 94 -21 130 -8 36 -23 130 -34 210 -23 173 -45 310 -59 365 -6 22 -15
80 -21 128 -13 104 -2 133 52 141 36 6 668 34 733 33 35 -1 317 8 955 29 96 3
231 7 300 9 406 9 696 18 701 21 4 2 72 4 150 4 79 0 317 9 529 19 212 11 408
18 435 18 43 -1 378 9 975 29 91 3 235 7 320 9 514 12 1195 36 1425 49 121 7
234 14 251 15 22 1 38 -7 58 -28z"/>
<path d="M1806 5415 c-22 -12 -56 -31 -74 -41 l-32 -19 3 -1195 c1 -657 5
-1204 8 -1215 7 -23 29 -24 219 -11 58 4 132 9 165 11 33 2 98 7 145 10 82 5
132 9 305 20 283 18 393 27 465 40 13 3 15 -39 14 -329 0 -256 3 -342 14 -381
8 -27 16 -52 19 -55 2 -3 144 -5 314 -5 l309 0 1 45 c0 25 0 217 0 427 l1 382
26 5 c15 3 54 8 87 11 33 4 67 8 75 10 8 2 40 7 70 10 165 18 282 36 343 53
61 18 68 18 62 3 -4 -9 -17 -47 -30 -86 -21 -64 -23 -89 -23 -290 l0 -220 61
-44 61 -43 75 6 c42 3 90 8 106 11 17 2 55 7 85 10 30 3 78 9 105 12 28 4 427
7 888 7 l839 1 40 95 41 95 1 262 1 263 -25 5 c-68 14 -134 18 -230 15 -182
-6 -381 -5 -495 4 -60 5 -121 10 -135 11 -14 1 -52 -5 -85 -12 -33 -8 -71 -15
-85 -17 -77 -11 -123 -19 -178 -30 -34 -7 -62 -10 -62 -7 0 3 41 32 90 65 84
55 259 220 376 356 22 25 41 47 44 50 3 3 66 77 140 165 74 88 140 166 147
173 52 55 88 113 128 212 192 471 185 451 185 542 -1 45 -9 118 -19 161 -10
42 -17 77 -15 77 11 0 -152 147 -174 157 -25 12 -51 23 -194 86 -51 23 -208
74 -248 82 -8 1 -58 6 -110 10 -52 3 -111 8 -130 10 -19 2 -69 6 -110 9 -41 3
-102 8 -135 11 -120 10 -172 14 -255 20 -47 4 -99 8 -117 10 -29 3 -135 -8
-193 -20 -57 -12 -147 -23 -201 -24 -35 -1 -36 -2 -58 -69 -25 -76 -34 -139
-34 -227 0 -66 9 -156 19 -195 3 -14 10 -47 15 -73 8 -38 20 -57 57 -92 27
-26 60 -47 77 -50 17 -2 46 -7 65 -11 19 -3 166 -7 326 -9 l291 -3 184 -47
c101 -26 205 -53 231 -60 25 -7 49 -11 51 -8 3 3 9 -12 12 -33 4 -22 11 -57
16 -79 7 -34 5 -43 -14 -64 -46 -50 -206 -214 -443 -453 l-244 -247 -333 -200
-332 -199 -3 141 c-3 178 -5 181 -107 172 -38 -3 -101 -8 -140 -10 -38 -3 -92
-7 -120 -10 -27 -3 -92 -7 -144 -11 -52 -3 -101 -7 -109 -8 -8 -2 -27 11 -43
27 l-29 29 0 796 0 797 -33 36 c-17 20 -42 48 -54 63 l-23 26 -227 0 -228 0 0
-890 0 -889 -25 -5 c-14 -3 -45 -8 -70 -11 -25 -4 -56 -8 -70 -10 -14 -2 -81
-11 -150 -20 -69 -9 -136 -18 -150 -20 -110 -17 -103 -18 -144 24 l-39 40 -3
163 c-2 90 -6 237 -9 328 -3 91 -7 431 -10 755 -3 325 -7 599 -9 610 -3 11 -5
25 -5 31 -1 8 -86 11 -302 11 -292 0 -303 -1 -343 -22z"/>
</g>
</svg>
