{
	"asset":{
		"generator":"Khronos glTF Blender I/O v3.6.28",
		"version":"2.0"
	},
	"scene":0,
	"scenes":[
		{
			"name":"Scene",
			"nodes":[
				0
			]
		}
	],
	"nodes":[
		{
			"mesh":0,
			"name":"Medieval oven.001",
			"scale":[
				1,
				0.9474599957466125,
				0.8980934619903564
			],
			"translation":[
				0.2544412612915039,
				-0.2751811444759369,
				-0.03130912780761719
			]
		}
	],
	"materials":[
		{
			"doubleSided":true,
			"name":"Fireplacen and Oven",
			"normalTexture":{
				"index":0
			},
			"pbrMetallicRoughness":{
				"baseColorTexture":{
					"index":1
				},
				"metallicRoughnessTexture":{
					"index":2
				}
			}
		}
	],
	"meshes":[
		{
			"name":"Cube.381",
			"primitives":[
				{
					"attributes":{
						"POSITION":0,
						"NORMAL":1,
						"TEXCOORD_0":2
					},
					"indices":3,
					"material":0
				}
			]
		}
	],
	"textures":[
		{
			"sampler":0,
			"source":0
		},
		{
			"sampler":0,
			"source":1
		},
		{
			"sampler":0,
			"source":2
		}
	],
	"images":[
		{
			"bufferView":4,
			"mimeType":"image/jpeg",
			"name":"Fireplacen and Oven_Normal"
		},
		{
			"bufferView":5,
			"mimeType":"image/jpeg",
			"name":"Fireplacen and Oven_Base_Color"
		},
		{
			"bufferView":6,
			"mimeType":"image/jpeg",
			"name":"Fireplacen and Oven_Metallic.png-Fireplacen and Oven_Roughness.png"
		}
	],
	"accessors":[
		{
			"bufferView":0,
			"componentType":5126,
			"count":464,
			"max":[
				0.46936896443367004,
				3.629429340362549,
				1.0939418077468872
			],
			"min":[
				-0.9042586088180542,
				0,
				-1.0939418077468872
			],
			"type":"VEC3"
		},
		{
			"bufferView":1,
			"componentType":5126,
			"count":464,
			"type":"VEC3"
		},
		{
			"bufferView":2,
			"componentType":5126,
			"count":464,
			"type":"VEC2"
		},
		{
			"bufferView":3,
			"componentType":5123,
			"count":876,
			"type":"SCALAR"
		}
	],
	"bufferViews":[
		{
			"buffer":0,
			"byteLength":5568,
			"byteOffset":0,
			"target":34962
		},
		{
			"buffer":0,
			"byteLength":5568,
			"byteOffset":5568,
			"target":34962
		},
		{
			"buffer":0,
			"byteLength":3712,
			"byteOffset":11136,
			"target":34962
		},
		{
			"buffer":0,
			"byteLength":1752,
			"byteOffset":14848,
			"target":34963
		},
		{
			"buffer":0,
			"byteLength":264805,
			"byteOffset":16600
		},
		{
			"buffer":0,
			"byteLength":314520,
			"byteOffset":281408
		},
		{
			"buffer":0,
			"byteLength":358639,
			"byteOffset":595928
		}
	],
	"samplers":[
		{
			"magFilter":9729,
			"minFilter":9987
		}
	],
	"buffers":[
		{
			"byteLength":954568,
			"uri":"data:application/octet-stream;base64,"
		}
	]
}
