{
	"asset":{
		"generator":"Khronos glTF Blender I/O v3.6.28",
		"version":"2.0"
	},
	"scene":0,
	"scenes":[
		{
			"name":"Scene",
			"nodes":[
				0
			]
		}
	],
	"nodes":[
		{
			"mesh":0,
			"name":"chair.002",
			"rotation":[
				0,
				-0.9992685317993164,
				0,
				0.03824155032634735
			],
			"translation":[
				0.038941383361816406,
				-0.17049026489257812,
				-0.13298892974853516
			]
		}
	],
	"materials":[
		{
			"doubleSided":true,
			"name":"tables and chairs",
			"normalTexture":{
				"index":0
			},
			"pbrMetallicRoughness":{
				"baseColorTexture":{
					"index":1
				},
				"metallicRoughnessTexture":{
					"index":2
				}
			}
		}
	],
	"meshes":[
		{
			"name":"Cube.154",
			"primitives":[
				{
					"attributes":{
						"POSITION":0,
						"NORMAL":1,
						"TEXCOORD_0":2
					},
					"indices":3,
					"material":0
				}
			]
		}
	],
	"textures":[
		{
			"sampler":0,
			"source":0
		},
		{
			"sampler":0,
			"source":1
		},
		{
			"sampler":0,
			"source":2
		}
	],
	"images":[
		{
			"bufferView":4,
			"mimeType":"image/jpeg",
			"name":"tables and chairs_Normal"
		},
		{
			"bufferView":5,
			"mimeType":"image/jpeg",
			"name":"tables and chairs_Base_Color"
		},
		{
			"bufferView":6,
			"mimeType":"image/jpeg",
			"name":"tables and chairs_Metallic-tables and chairs_Roughness"
		}
	],
	"accessors":[
		{
			"bufferView":0,
			"componentType":5126,
			"count":206,
			"max":[
				0.30764999985694885,
				0.8115803599357605,
				0.37624669075012207
			],
			"min":[
				-0.3143194913864136,
				-0.006994783878326416,
				-0.41548389196395874
			],
			"type":"VEC3"
		},
		{
			"bufferView":1,
			"componentType":5126,
			"count":206,
			"type":"VEC3"
		},
		{
			"bufferView":2,
			"componentType":5126,
			"count":206,
			"type":"VEC2"
		},
		{
			"bufferView":3,
			"componentType":5123,
			"count":342,
			"type":"SCALAR"
		}
	],
	"bufferViews":[
		{
			"buffer":0,
			"byteLength":2472,
			"byteOffset":0,
			"target":34962
		},
		{
			"buffer":0,
			"byteLength":2472,
			"byteOffset":2472,
			"target":34962
		},
		{
			"buffer":0,
			"byteLength":1648,
			"byteOffset":4944,
			"target":34962
		},
		{
			"buffer":0,
			"byteLength":684,
			"byteOffset":6592,
			"target":34963
		},
		{
			"buffer":0,
			"byteLength":66341,
			"byteOffset":7276
		},
		{
			"buffer":0,
			"byteLength":85708,
			"byteOffset":73620
		},
		{
			"buffer":0,
			"byteLength":66178,
			"byteOffset":159328
		}
	],
	"samplers":[
		{
			"magFilter":9729,
			"minFilter":9987
		}
	],
	"buffers":[
		{
			"byteLength":225508,
			"uri":"data:application/octet-stream;base64,"
		}
	]
}
