{
	"asset":{
		"generator":"Khronos glTF Blender I/O v3.6.28",
		"version":"2.0"
	},
	"extensionsUsed":[
		"KHR_materials_specular"
	],
	"scene":0,
	"scenes":[
		{
			"name":"Scene",
			"nodes":[
				0
			]
		}
	],
	"nodes":[
		{
			"mesh":0,
			"name":"Table.002",
			"translation":[
				0.04239177703857422,
				0.0459933876991272,
				0.043422043323516846
			]
		}
	],
	"materials":[
		{
			"doubleSided":true,
			"extensions":{
				"KHR_materials_specular":{
					"specularColorFactor":[
						0,
						0,
						0
					]
				}
			},
			"name":"tables and chairs.002",
			"normalTexture":{
				"index":0,
				"scale":0.30000007152557373
			},
			"pbrMetallicRoughness":{
				"baseColorTexture":{
					"index":1
				},
				"metallicRoughnessTexture":{
					"index":2
				}
			}
		}
	],
	"meshes":[
		{
			"name":"Cube.707",
			"primitives":[
				{
					"attributes":{
						"POSITION":0,
						"NORMAL":1,
						"TEXCOORD_0":2
					},
					"indices":3,
					"material":0
				}
			]
		}
	],
	"textures":[
		{
			"sampler":0,
			"source":0
		},
		{
			"sampler":0,
			"source":1
		},
		{
			"sampler":0,
			"source":2
		}
	],
	"images":[
		{
			"bufferView":4,
			"mimeType":"image/jpeg",
			"name":"tables and chairs_Normal"
		},
		{
			"bufferView":5,
			"mimeType":"image/jpeg",
			"name":"tables and chairs_Base_Color"
		},
		{
			"bufferView":6,
			"mimeType":"image/jpeg",
			"name":"tables and chairs_Metallic"
		}
	],
	"accessors":[
		{
			"bufferView":0,
			"componentType":5126,
			"count":304,
			"max":[
				0.7360606789588928,
				1.0838069915771484,
				1.0617451667785645
			],
			"min":[
				-0.7718986868858337,
				-0.028110045939683914,
				-0.9850566983222961
			],
			"type":"VEC3"
		},
		{
			"bufferView":1,
			"componentType":5126,
			"count":304,
			"type":"VEC3"
		},
		{
			"bufferView":2,
			"componentType":5126,
			"count":304,
			"type":"VEC2"
		},
		{
			"bufferView":3,
			"componentType":5123,
			"count":474,
			"type":"SCALAR"
		}
	],
	"bufferViews":[
		{
			"buffer":0,
			"byteLength":3648,
			"byteOffset":0,
			"target":34962
		},
		{
			"buffer":0,
			"byteLength":3648,
			"byteOffset":3648,
			"target":34962
		},
		{
			"buffer":0,
			"byteLength":2432,
			"byteOffset":7296,
			"target":34962
		},
		{
			"buffer":0,
			"byteLength":948,
			"byteOffset":9728,
			"target":34963
		},
		{
			"buffer":0,
			"byteLength":66341,
			"byteOffset":10676
		},
		{
			"buffer":0,
			"byteLength":85708,
			"byteOffset":77020
		},
		{
			"buffer":0,
			"byteLength":66178,
			"byteOffset":162728
		}
	],
	"samplers":[
		{
			"magFilter":9729,
			"minFilter":9987
		}
	],
	"buffers":[
		{
			"byteLength":228908,
			"uri":"data:application/octet-stream;base64,"
		}
	]
}
